STARTFONT 2.3
FONT -FontForge-Syncopate-Book-R-Normal--12-120-72-72-P-89-ISO10646-1
SIZE 12 72 72  2
FONTBOUNDINGBOX 22 14 -2 -3
COMMENT "Generated by fontforge, http://fontforge.sourceforge.net"
COMMENT "Copyright (c) 2010 by Brian J. Bonislawsky DBA Astigmatic (AOETI). All rights reserved. Available under the Apache 2.0 licence.http://www.apache.org/licenses/LICENSE-2.0.html"
STARTPROPERTIES 40
FOUNDRY "FontForge"
FAMILY_NAME "Syncopate"
WEIGHT_NAME "Book"
SLANT "R"
SETWIDTH_NAME "Normal"
ADD_STYLE_NAME ""
PIXEL_SIZE 12
POINT_SIZE 120
RESOLUTION_X 72
RESOLUTION_Y 72
SPACING "P"
AVERAGE_WIDTH 89
CHARSET_REGISTRY "ISO10646"
CHARSET_ENCODING "1"
FONTNAME_REGISTRY ""
CHARSET_COLLECTIONS "ISO8859-2 ISO8859-9 ISO8859-4 ISO10646-1"
BITS_PER_PIXEL 2
FONT_NAME "Syncopate-Regular"
FACE_NAME "Syncopate Regular"
COPYRIGHT "Copyright (c) 2010 by Brian J. Bonislawsky DBA Astigmatic (AOETI). All rights reserved. Available under the Apache 2.0 licence.http://www.apache.org/licenses/LICENSE-2.0.html"
FONT_VERSION "001.001"
FONT_ASCENT 10
FONT_DESCENT 2
UNDERLINE_POSITION -1
UNDERLINE_THICKNESS 1
X_HEIGHT 7
CAP_HEIGHT 7
RAW_ASCENT 799
RAW_DESCENT 200
NORM_SPACE 5
RELATIVE_WEIGHT 40
RELATIVE_SETWIDTH 70
SUPERSCRIPT_X 0
SUPERSCRIPT_Y 3
SUPERSCRIPT_SIZE 2
SUBSCRIPT_X 0
SUBSCRIPT_Y 3
SUBSCRIPT_SIZE 2
AVG_LOWERCASE_WIDTH 102
AVG_UPPERCASE_WIDTH 98
ENDPROPERTIES
CHARS 370
STARTCHAR space
ENCODING 32
SWIDTH 375 0
DWIDTH 5 0
BBX 1 1 0 0
BITMAP
00
ENDCHAR
STARTCHAR exclam
ENCODING 33
SWIDTH 274 0
DWIDTH 3 0
BBX 1 8 1 0
BITMAP
80
80
80
80
80
80
00
80
ENDCHAR
STARTCHAR quotedbl
ENCODING 34
SWIDTH 290 0
DWIDTH 3 0
BBX 3 2 0 6
BITMAP
98
58
ENDCHAR
STARTCHAR numbersign
ENCODING 35
SWIDTH 701 0
DWIDTH 8 0
BBX 8 8 0 0
BITMAP
0208
0108
2FFE
0410
0820
7FFC
0410
1450
ENDCHAR
STARTCHAR dollar
ENCODING 36
SWIDTH 767 0
DWIDTH 9 0
BBX 7 10 1 -1
BITMAP
0200
2FF8
9200
8200
7A40
06A4
0208
0218
FFE4
0200
ENDCHAR
STARTCHAR percent
ENCODING 37
SWIDTH 992 0
DWIDTH 12 0
BBX 11 8 0 0
BITMAP
2F4080
608200
608500
2F5400
0022E0
008918
020918
0502E0
ENDCHAR
STARTCHAR ampersand
ENCODING 38
SWIDTH 926 0
DWIDTH 11 0
BBX 9 8 1 0
BITMAP
1BE000
242400
205000
0E0000
624080
806140
D01A00
2FE580
ENDCHAR
STARTCHAR quotesingle
ENCODING 39
SWIDTH 140 0
DWIDTH 2 0
BBX 2 2 0 6
BITMAP
90
50
ENDCHAR
STARTCHAR parenleft
ENCODING 40
SWIDTH 420 0
DWIDTH 5 0
BBX 3 10 1 -1
BITMAP
18
20
50
80
80
80
80
50
20
18
ENDCHAR
STARTCHAR parenright
ENCODING 41
SWIDTH 420 0
DWIDTH 5 0
BBX 3 10 1 -1
BITMAP
90
20
18
08
08
08
08
18
20
90
ENDCHAR
STARTCHAR asterisk
ENCODING 42
SWIDTH 503 0
DWIDTH 6 0
BBX 4 5 1 3
BITMAP
14
96
3C
96
14
ENDCHAR
STARTCHAR plus
ENCODING 43
SWIDTH 634 0
DWIDTH 8 0
BBX 6 7 1 1
BITMAP
0800
0800
0800
FFE0
0800
0800
0800
ENDCHAR
STARTCHAR comma
ENCODING 44
SWIDTH 185 0
DWIDTH 2 0
BBX 2 2 0 -1
BITMAP
60
90
ENDCHAR
STARTCHAR hyphen
ENCODING 45
SWIDTH 540 0
DWIDTH 6 0
BBX 5 1 1 4
BITMAP
FF80
ENDCHAR
STARTCHAR period
ENCODING 46
SWIDTH 185 0
DWIDTH 2 0
BBX 2 1 0 0
BITMAP
60
ENDCHAR
STARTCHAR slash
ENCODING 47
SWIDTH 500 0
DWIDTH 6 0
BBX 4 8 1 0
BITMAP
02
02
08
08
20
20
80
80
ENDCHAR
STARTCHAR zero
ENCODING 48
SWIDTH 833 0
DWIDTH 10 0
BBX 10 8 0 0
BITMAP
06F900
190640
200080
600090
600090
200080
190640
06F900
ENDCHAR
STARTCHAR one
ENCODING 49
SWIDTH 339 0
DWIDTH 4 0
BBX 3 8 0 0
BITMAP
F8
08
08
08
08
08
08
08
ENDCHAR
STARTCHAR two
ENCODING 50
SWIDTH 728 0
DWIDTH 9 0
BBX 8 8 0 0
BITMAP
1BE4
641A
0002
0005
0018
0190
1900
7FFF
ENDCHAR
STARTCHAR three
ENCODING 51
SWIDTH 726 0
DWIDTH 9 0
BBX 8 8 0 0
BITMAP
7FF8
0009
0019
07F4
0019
0002
001A
BFE4
ENDCHAR
STARTCHAR four
ENCODING 52
SWIDTH 769 0
DWIDTH 9 0
BBX 9 8 0 0
BITMAP
002800
009800
020800
080800
200800
BFFFC0
000800
000800
ENDCHAR
STARTCHAR five
ENCODING 53
SWIDTH 738 0
DWIDTH 9 0
BBX 8 8 0 0
BITMAP
3FFD
2000
2000
3FF8
0006
0002
0006
7FF8
ENDCHAR
STARTCHAR six
ENCODING 54
SWIDTH 772 0
DWIDTH 9 0
BBX 9 8 0 0
BITMAP
06FF00
190000
200000
26F900
790640
200080
190640
06F900
ENDCHAR
STARTCHAR seven
ENCODING 55
SWIDTH 669 0
DWIDTH 8 0
BBX 8 8 0 0
BITMAP
FFFE
0008
0014
0020
0090
0140
0200
0900
ENDCHAR
STARTCHAR eight
ENCODING 56
SWIDTH 793 0
DWIDTH 10 0
BBX 9 8 0 0
BITMAP
0BF900
240640
190600
07F800
290640
600080
340680
1BF900
ENDCHAR
STARTCHAR nine
ENCODING 57
SWIDTH 776 0
DWIDTH 9 0
BBX 9 8 0 0
BITMAP
1BF800
240600
500140
640780
1BF940
000240
001A00
2FE400
ENDCHAR
STARTCHAR colon
ENCODING 58
SWIDTH 245 0
DWIDTH 3 0
BBX 1 6 1 0
BITMAP
C0
00
00
00
00
C0
ENDCHAR
STARTCHAR semicolon
ENCODING 59
SWIDTH 234 0
DWIDTH 3 0
BBX 2 7 0 -1
BITMAP
30
00
00
00
00
20
50
ENDCHAR
STARTCHAR less
ENCODING 60
SWIDTH 634 0
DWIDTH 8 0
BBX 6 7 1 1
BITMAP
0060
0780
6800
D000
6800
0780
0060
ENDCHAR
STARTCHAR equal
ENCODING 61
SWIDTH 634 0
DWIDTH 8 0
BBX 6 3 1 3
BITMAP
FFE0
0000
FFE0
ENDCHAR
STARTCHAR greater
ENCODING 62
SWIDTH 634 0
DWIDTH 8 0
BBX 6 7 1 1
BITMAP
9000
6800
0680
00A0
0680
6900
9000
ENDCHAR
STARTCHAR question
ENCODING 63
SWIDTH 568 0
DWIDTH 7 0
BBX 6 8 0 0
BITMAP
7F80
0060
0020
0050
0A40
0800
0000
0800
ENDCHAR
STARTCHAR at
ENCODING 64
SWIDTH 1016 0
DWIDTH 12 0
BBX 11 8 1 0
BITMAP
06FE40
2901A0
91FD20
860924
860870
92FB90
740000
0AFE00
ENDCHAR
STARTCHAR A
ENCODING 65
SWIDTH 812 0
DWIDTH 10 0
BBX 10 8 0 0
BITMAP
00A000
016000
020800
050900
080200
1FFF40
200080
900090
ENDCHAR
STARTCHAR B
ENCODING 66
SWIDTH 836 0
DWIDTH 10 0
BBX 9 8 1 0
BITMAP
BFF900
800600
800600
BFF800
800600
800140
800600
BFFD00
ENDCHAR
STARTCHAR C
ENCODING 67
SWIDTH 869 0
DWIDTH 10 0
BBX 9 8 1 0
BITMAP
0BF900
740580
800000
800000
800000
800000
740180
0BFA00
ENDCHAR
STARTCHAR D
ENCODING 68
SWIDTH 910 0
DWIDTH 11 0
BBX 9 8 1 0
BITMAP
BFF900
800640
800080
800080
800080
800080
800640
BFF900
ENDCHAR
STARTCHAR E
ENCODING 69
SWIDTH 754 0
DWIDTH 9 0
BBX 7 8 1 0
BITMAP
BFFC
8000
8000
BFF8
8000
8000
8000
BFFC
ENDCHAR
STARTCHAR F
ENCODING 70
SWIDTH 687 0
DWIDTH 8 0
BBX 7 8 1 0
BITMAP
BFF8
8000
8000
BFF4
8000
8000
8000
8000
ENDCHAR
STARTCHAR G
ENCODING 71
SWIDTH 910 0
DWIDTH 11 0
BBX 9 8 1 0
BITMAP
0BFE00
740180
800000
800000
803FC0
800080
740080
0AFE40
ENDCHAR
STARTCHAR H
ENCODING 72
SWIDTH 949 0
DWIDTH 11 0
BBX 9 8 1 0
BITMAP
800080
800080
800080
BFFFC0
800080
800080
800080
800080
ENDCHAR
STARTCHAR I
ENCODING 73
SWIDTH 287 0
DWIDTH 3 0
BBX 1 8 1 0
BITMAP
80
80
80
80
80
80
80
80
ENDCHAR
STARTCHAR J
ENCODING 74
SWIDTH 590 0
DWIDTH 7 0
BBX 6 8 0 0
BITMAP
0020
0020
0020
0020
0020
0020
0090
FF80
ENDCHAR
STARTCHAR K
ENCODING 75
SWIDTH 806 0
DWIDTH 10 0
BBX 8 8 1 0
BITMAP
8009
8060
8240
A800
9900
8280
8064
800A
ENDCHAR
STARTCHAR L
ENCODING 76
SWIDTH 701 0
DWIDTH 8 0
BBX 7 8 1 0
BITMAP
8000
8000
8000
8000
8000
8000
8000
BFFC
ENDCHAR
STARTCHAR M
ENCODING 77
SWIDTH 1139 0
DWIDTH 14 0
BBX 12 8 1 0
BITMAP
900009
A00019
980025
850085
820145
808205
805905
802405
ENDCHAR
STARTCHAR N
ENCODING 78
SWIDTH 936 0
DWIDTH 11 0
BBX 9 8 1 0
BITMAP
A00080
980080
860080
818080
806080
801880
800680
8001C0
ENDCHAR
STARTCHAR O
ENCODING 79
SWIDTH 983 0
DWIDTH 12 0
BBX 10 8 1 0
BITMAP
0BFA00
7401C0
800060
800020
800020
800060
7401D0
0BFA00
ENDCHAR
STARTCHAR P
ENCODING 80
SWIDTH 818 0
DWIDTH 10 0
BBX 8 8 1 0
BITMAP
BFF9
8006
8002
8006
BFF9
8000
8000
8000
ENDCHAR
STARTCHAR Q
ENCODING 81
SWIDTH 983 0
DWIDTH 12 0
BBX 11 8 1 0
BITMAP
0BFA00
7401C0
800060
800020
800020
801860
740BD0
0BFE68
ENDCHAR
STARTCHAR R
ENCODING 82
SWIDTH 833 0
DWIDTH 10 0
BBX 9 8 1 0
BITMAP
BFF800
800600
800200
800600
BFF800
801400
800900
800240
ENDCHAR
STARTCHAR S
ENCODING 83
SWIDTH 787 0
DWIDTH 9 0
BBX 8 8 1 0
BITMAP
6FFC
9000
9000
2E40
0168
0005
0019
FFE4
ENDCHAR
STARTCHAR T
ENCODING 84
SWIDTH 708 0
DWIDTH 9 0
BBX 9 8 0 0
BITMAP
BFFF40
008000
008000
008000
008000
008000
008000
008000
ENDCHAR
STARTCHAR U
ENCODING 85
SWIDTH 891 0
DWIDTH 11 0
BBX 9 8 1 0
BITMAP
800140
800140
800140
800140
800140
800140
640700
1BF900
ENDCHAR
STARTCHAR V
ENCODING 86
SWIDTH 817 0
DWIDTH 10 0
BBX 10 8 0 0
BITMAP
500090
200080
140240
080600
060900
031800
01A400
00E000
ENDCHAR
STARTCHAR W
ENCODING 87
SWIDTH 1266 0
DWIDTH 15 0
BBX 15 8 0 0
BITMAP
50034018
20058020
24088020
08185050
08202080
05202580
02501A00
02C00A00
ENDCHAR
STARTCHAR X
ENCODING 88
SWIDTH 821 0
DWIDTH 10 0
BBX 8 8 1 0
BITMAP
9006
2418
0860
0280
0680
0820
2008
8002
ENDCHAR
STARTCHAR Y
ENCODING 89
SWIDTH 763 0
DWIDTH 9 0
BBX 9 8 0 0
BITMAP
600240
180500
091800
026000
00C000
008000
008000
008000
ENDCHAR
STARTCHAR Z
ENCODING 90
SWIDTH 728 0
DWIDTH 9 0
BBX 7 8 1 0
BITMAP
FFF8
0010
0040
0100
0400
1400
5000
FFFC
ENDCHAR
STARTCHAR bracketleft
ENCODING 91
SWIDTH 409 0
DWIDTH 5 0
BBX 4 10 1 -1
BITMAP
7D
50
50
50
50
50
50
50
50
7D
ENDCHAR
STARTCHAR backslash
ENCODING 92
SWIDTH 500 0
DWIDTH 6 0
BBX 4 8 1 0
BITMAP
80
80
20
20
08
08
02
02
ENDCHAR
STARTCHAR bracketright
ENCODING 93
SWIDTH 409 0
DWIDTH 5 0
BBX 4 10 0 -1
BITMAP
7D
05
05
05
05
05
05
05
05
7D
ENDCHAR
STARTCHAR asciicircum
ENCODING 94
SWIDTH 459 0
DWIDTH 6 0
BBX 5 3 0 5
BITMAP
0D00
2640
6080
ENDCHAR
STARTCHAR underscore
ENCODING 95
SWIDTH 500 0
DWIDTH 6 0
BBX 6 1 0 -2
BITMAP
FFF0
ENDCHAR
STARTCHAR grave
ENCODING 96
SWIDTH 527 0
DWIDTH 6 0
BBX 3 2 1 7
BITMAP
90
18
ENDCHAR
STARTCHAR a
ENCODING 97
SWIDTH 888 0
DWIDTH 11 0
BBX 10 8 0 0
BITMAP
2FFE00
000180
000050
01AFD0
1A5050
600050
3406D0
1BF950
ENDCHAR
STARTCHAR b
ENCODING 98
SWIDTH 836 0
DWIDTH 10 0
BBX 9 8 1 0
BITMAP
BFF900
800600
800600
BFF800
800600
800140
800600
BFFD00
ENDCHAR
STARTCHAR c
ENCODING 99
SWIDTH 869 0
DWIDTH 10 0
BBX 9 8 1 0
BITMAP
0BF900
740580
800000
800000
800000
800000
740180
0BFA00
ENDCHAR
STARTCHAR d
ENCODING 100
SWIDTH 910 0
DWIDTH 11 0
BBX 9 8 1 0
BITMAP
BFF900
800640
800080
800080
800080
800080
800640
BFF900
ENDCHAR
STARTCHAR e
ENCODING 101
SWIDTH 910 0
DWIDTH 11 0
BBX 9 8 1 0
BITMAP
0BF900
640640
800080
FFFFC0
800000
D00000
740000
0BFF40
ENDCHAR
STARTCHAR f
ENCODING 102
SWIDTH 817 0
DWIDTH 10 0
BBX 8 8 1 0
BITMAP
1BFF
6400
9000
8000
BFFF
8000
8000
8000
ENDCHAR
STARTCHAR g
ENCODING 103
SWIDTH 910 0
DWIDTH 11 0
BBX 9 8 1 0
BITMAP
0BFE00
740180
800000
800000
803FC0
800080
740080
0AFE40
ENDCHAR
STARTCHAR h
ENCODING 104
SWIDTH 949 0
DWIDTH 11 0
BBX 9 8 1 0
BITMAP
800080
800080
800080
BFFFC0
800080
800080
800080
800080
ENDCHAR
STARTCHAR i
ENCODING 105
SWIDTH 287 0
DWIDTH 3 0
BBX 1 8 1 0
BITMAP
80
80
80
80
80
80
80
80
ENDCHAR
STARTCHAR j
ENCODING 106
SWIDTH 590 0
DWIDTH 7 0
BBX 6 8 0 0
BITMAP
0020
0020
0020
0020
0020
0020
0090
FF80
ENDCHAR
STARTCHAR k
ENCODING 107
SWIDTH 867 0
DWIDTH 10 0
BBX 9 8 1 0
BITMAP
800200
800600
806400
BFD000
806800
800600
800240
800180
ENDCHAR
STARTCHAR l
ENCODING 108
SWIDTH 709 0
DWIDTH 9 0
BBX 8 8 1 0
BITMAP
8000
8000
8000
8000
8000
8000
6000
2FFD
ENDCHAR
STARTCHAR m
ENCODING 109
SWIDTH 1246 0
DWIDTH 15 0
BBX 13 8 1 0
BITMAP
8BE1BE00
B42A4240
900C0180
80080080
80080080
80080080
80080080
80080080
ENDCHAR
STARTCHAR n
ENCODING 110
SWIDTH 933 0
DWIDTH 11 0
BBX 9 8 1 0
BITMAP
86FE00
A90280
900080
800080
800080
800080
800080
800080
ENDCHAR
STARTCHAR o
ENCODING 111
SWIDTH 983 0
DWIDTH 12 0
BBX 10 8 1 0
BITMAP
0BFA00
7401C0
800060
800020
800020
800060
7401D0
0BFA00
ENDCHAR
STARTCHAR p
ENCODING 112
SWIDTH 818 0
DWIDTH 10 0
BBX 8 8 1 0
BITMAP
BFF9
8006
8002
8006
BFF9
8000
8000
8000
ENDCHAR
STARTCHAR q
ENCODING 113
SWIDTH 983 0
DWIDTH 12 0
BBX 11 8 1 0
BITMAP
0BFA00
7401C0
800060
800020
800020
800060
7401D0
0BFEA8
ENDCHAR
STARTCHAR r
ENCODING 114
SWIDTH 609 0
DWIDTH 7 0
BBX 7 8 1 0
BITMAP
86F4
A900
9000
8000
8000
8000
8000
8000
ENDCHAR
STARTCHAR s
ENCODING 115
SWIDTH 787 0
DWIDTH 9 0
BBX 8 8 1 0
BITMAP
6FFC
9000
9000
2E40
0168
0005
0019
FFE4
ENDCHAR
STARTCHAR t
ENCODING 116
SWIDTH 708 0
DWIDTH 9 0
BBX 9 8 0 0
BITMAP
BFFF40
008000
008000
008000
008000
008000
008000
008000
ENDCHAR
STARTCHAR u
ENCODING 117
SWIDTH 931 0
DWIDTH 11 0
BBX 9 8 1 0
BITMAP
800080
800080
800080
800080
800080
800180
601A80
1FE480
ENDCHAR
STARTCHAR v
ENCODING 118
SWIDTH 817 0
DWIDTH 10 0
BBX 10 8 0 0
BITMAP
500090
200080
140240
080600
060900
031800
01A400
00E000
ENDCHAR
STARTCHAR w
ENCODING 119
SWIDTH 1266 0
DWIDTH 15 0
BBX 15 8 0 0
BITMAP
50034018
20058020
24088020
08185050
08202080
05202580
02501A00
02C00A00
ENDCHAR
STARTCHAR x
ENCODING 120
SWIDTH 821 0
DWIDTH 10 0
BBX 8 8 1 0
BITMAP
9006
2418
0860
0280
0680
0820
2008
8002
ENDCHAR
STARTCHAR y
ENCODING 121
SWIDTH 911 0
DWIDTH 11 0
BBX 9 8 1 0
BITMAP
800180
800180
800280
641A80
1BE580
000140
001B00
FFE800
ENDCHAR
STARTCHAR z
ENCODING 122
SWIDTH 728 0
DWIDTH 9 0
BBX 7 8 1 0
BITMAP
FFF8
0010
0040
0100
0400
1400
5000
FFFC
ENDCHAR
STARTCHAR braceleft
ENCODING 123
SWIDTH 386 0
DWIDTH 5 0
BBX 4 10 0 -1
BITMAP
0B
18
14
14
24
A0
24
14
18
0B
ENDCHAR
STARTCHAR bar
ENCODING 124
SWIDTH 259 0
DWIDTH 3 0
BBX 1 12 1 -3
BITMAP
80
80
80
80
80
80
80
80
80
80
80
80
ENDCHAR
STARTCHAR braceright
ENCODING 125
SWIDTH 386 0
DWIDTH 5 0
BBX 5 10 0 -1
BITMAP
7400
0800
0800
0800
0900
0740
0800
0800
0800
7400
ENDCHAR
STARTCHAR asciitilde
ENCODING 126
SWIDTH 634 0
DWIDTH 8 0
BBX 6 2 1 3
BITMAP
B910
46D0
ENDCHAR
STARTCHAR nonbreakingspace
ENCODING 160
SWIDTH 375 0
DWIDTH 5 0
BBX 1 1 0 0
BITMAP
00
ENDCHAR
STARTCHAR exclamdown
ENCODING 161
SWIDTH 274 0
DWIDTH 3 0
BBX 1 8 1 0
BITMAP
80
00
80
80
80
80
80
80
ENDCHAR
STARTCHAR cent
ENCODING 162
SWIDTH 736 0
DWIDTH 9 0
BBX 9 9 0 -1
BITMAP
004000
06F900
299640
604000
504000
604000
299640
06F900
004000
ENDCHAR
STARTCHAR sterling
ENCODING 163
SWIDTH 792 0
DWIDTH 10 0
BBX 9 8 0 0
BITMAP
01BF40
024000
050000
090000
7FFC00
090000
180000
7FFF80
ENDCHAR
STARTCHAR currency
ENCODING 164
SWIDTH 560 0
DWIDTH 7 0
BBX 5 6 1 1
BITMAP
4040
AE40
9140
9140
AE40
4040
ENDCHAR
STARTCHAR yen
ENCODING 165
SWIDTH 811 0
DWIDTH 10 0
BBX 8 8 1 0
BITMAP
8006
2018
0860
FEFE
0240
FFFE
0240
0240
ENDCHAR
STARTCHAR brokenbar
ENCODING 166
SWIDTH 259 0
DWIDTH 3 0
BBX 1 10 1 -2
BITMAP
80
80
80
80
00
00
80
80
80
80
ENDCHAR
STARTCHAR section
ENCODING 167
SWIDTH 500 0
DWIDTH 6 0
BBX 6 8 0 0
BITMAP
1F80
2400
2E40
6180
3490
1B80
0180
3F40
ENDCHAR
STARTCHAR dieresis
ENCODING 168
SWIDTH 527 0
DWIDTH 6 0
BBX 4 1 1 7
BITMAP
52
ENDCHAR
STARTCHAR copyright
ENCODING 169
SWIDTH 770 0
DWIDTH 9 0
BBX 9 8 0 0
BITMAP
06F400
190A00
22F540
590080
590080
22F540
190A00
06F800
ENDCHAR
STARTCHAR ordfeminine
ENCODING 170
SWIDTH 497 0
DWIDTH 6 0
BBX 6 6 0 2
BITMAP
7F80
1BD0
9090
7F90
0000
7FD0
ENDCHAR
STARTCHAR guillemotleft
ENCODING 171
SWIDTH 440 0
DWIDTH 5 0
BBX 5 5 0 2
BITMAP
1480
2200
5500
2200
1480
ENDCHAR
STARTCHAR logicalnot
ENCODING 172
SWIDTH 634 0
DWIDTH 8 0
BBX 6 3 1 3
BITMAP
FFE0
0020
0020
ENDCHAR
STARTCHAR uni00AD
ENCODING 173
SWIDTH 540 0
DWIDTH 6 0
BBX 5 1 1 4
BITMAP
FF80
ENDCHAR
STARTCHAR registered
ENCODING 174
SWIDTH 600 0
DWIDTH 7 0
BBX 7 6 0 2
BITMAP
0B90
2BE0
5B84
5884
2460
0B90
ENDCHAR
STARTCHAR macron
ENCODING 175
SWIDTH 527 0
DWIDTH 6 0
BBX 4 1 1 7
BITMAP
7E
ENDCHAR
STARTCHAR degree
ENCODING 176
SWIDTH 373 0
DWIDTH 4 0
BBX 4 3 0 5
BITMAP
2D
62
2D
ENDCHAR
STARTCHAR plusminus
ENCODING 177
SWIDTH 634 0
DWIDTH 8 0
BBX 6 7 1 0
BITMAP
0800
0800
FFE0
0800
0800
0000
FFE0
ENDCHAR
STARTCHAR twosuperior
ENCODING 178
SWIDTH 511 0
DWIDTH 6 0
BBX 6 5 0 3
BITMAP
BF80
0090
0080
1500
BFD0
ENDCHAR
STARTCHAR threesuperior
ENCODING 179
SWIDTH 512 0
DWIDTH 6 0
BBX 6 5 0 3
BITMAP
7F80
0180
0F40
0090
BF80
ENDCHAR
STARTCHAR acute
ENCODING 180
SWIDTH 527 0
DWIDTH 6 0
BBX 3 2 2 7
BITMAP
18
60
ENDCHAR
STARTCHAR micro
ENCODING 181
SWIDTH 705 0
DWIDTH 8 0
BBX 8 8 0 -2
BITMAP
0805
1408
2408
2018
3468
2B88
5000
5000
ENDCHAR
STARTCHAR paragraph
ENCODING 182
SWIDTH 585 0
DWIDTH 7 0
BBX 6 8 0 0
BITMAP
1FE0
3F20
7F20
3F20
1F20
0220
0220
0220
ENDCHAR
STARTCHAR periodcentered
ENCODING 183
SWIDTH 185 0
DWIDTH 2 0
BBX 2 1 0 3
BITMAP
60
ENDCHAR
STARTCHAR cedilla
ENCODING 184
SWIDTH 527 0
DWIDTH 6 0
BBX 4 2 1 -2
BITMAP
1D
7D
ENDCHAR
STARTCHAR onesuperior
ENCODING 185
SWIDTH 261 0
DWIDTH 3 0
BBX 2 5 0 3
BITMAP
F0
20
20
20
20
ENDCHAR
STARTCHAR ordmasculine
ENCODING 186
SWIDTH 520 0
DWIDTH 6 0
BBX 6 6 0 2
BITMAP
2F80
9060
9060
2F80
0000
7FE0
ENDCHAR
STARTCHAR guillemotright
ENCODING 187
SWIDTH 440 0
DWIDTH 5 0
BBX 5 5 0 2
BITMAP
5200
2240
1880
2240
5200
ENDCHAR
STARTCHAR onequarter
ENCODING 188
SWIDTH 857 0
DWIDTH 10 0
BBX 10 8 0 0
BITMAP
B00200
200800
202400
205000
018680
021480
087FE0
240080
ENDCHAR
STARTCHAR onehalf
ENCODING 189
SWIDTH 937 0
DWIDTH 11 0
BBX 11 8 0 0
BITMAP
B00200
200800
202400
205000
018BE0
020020
080150
240BF4
ENDCHAR
STARTCHAR threequarters
ENCODING 190
SWIDTH 978 0
DWIDTH 12 0
BBX 11 8 0 0
BITMAP
7F4090
0F0140
018600
7F4800
0020B0
009620
014BFC
060020
ENDCHAR
STARTCHAR questiondown
ENCODING 191
SWIDTH 568 0
DWIDTH 7 0
BBX 5 8 1 0
BITMAP
0300
0000
0200
1A00
9000
8000
D000
6FC0
ENDCHAR
STARTCHAR Agrave
ENCODING 192
SWIDTH 812 0
DWIDTH 10 0
BBX 10 11 0 0
BITMAP
024000
009000
000000
00A000
016000
020800
050900
080200
1FFF40
200080
900090
ENDCHAR
STARTCHAR Aacute
ENCODING 193
SWIDTH 812 0
DWIDTH 10 0
BBX 10 11 0 0
BITMAP
001800
009000
000000
00A000
016000
020800
050900
080200
1FFF40
200080
900090
ENDCHAR
STARTCHAR Acircumflex
ENCODING 194
SWIDTH 812 0
DWIDTH 10 0
BBX 10 11 0 0
BITMAP
00A000
020800
000000
00A000
016000
020800
050900
080200
1FFF40
200080
900090
ENDCHAR
STARTCHAR Atilde
ENCODING 195
SWIDTH 812 0
DWIDTH 10 0
BBX 10 11 0 0
BITMAP
029800
027800
000000
00A000
016000
020800
050900
080200
1FFF40
200080
900090
ENDCHAR
STARTCHAR Adieresis
ENCODING 196
SWIDTH 812 0
DWIDTH 10 0
BBX 10 10 0 0
BITMAP
021800
000000
00A000
016000
020800
050900
080200
1FFF40
200080
900090
ENDCHAR
STARTCHAR Aring
ENCODING 197
SWIDTH 812 0
DWIDTH 10 0
BBX 10 11 0 0
BITMAP
01F400
01F400
000000
00A000
016000
020800
050900
080200
1FFF40
200080
900090
ENDCHAR
STARTCHAR AE
ENCODING 198
SWIDTH 1172 0
DWIDTH 14 0
BBX 14 8 0 0
BITMAP
003FFFC0
00990000
01890000
020BFF80
09090000
1FFD0000
20090000
900BFFD0
ENDCHAR
STARTCHAR Ccedilla
ENCODING 199
SWIDTH 869 0
DWIDTH 10 0
BBX 9 10 1 -2
BITMAP
0BF900
740580
800000
800000
800000
800000
740180
0BFA00
00E000
02E000
ENDCHAR
STARTCHAR Egrave
ENCODING 200
SWIDTH 754 0
DWIDTH 9 0
BBX 7 11 1 0
BITMAP
1800
0640
0000
BFFC
8000
8000
BFF8
8000
8000
8000
BFFC
ENDCHAR
STARTCHAR Eacute
ENCODING 201
SWIDTH 754 0
DWIDTH 9 0
BBX 7 11 1 0
BITMAP
0050
0240
0000
BFFC
8000
8000
BFF8
8000
8000
8000
BFFC
ENDCHAR
STARTCHAR Ecircumflex
ENCODING 202
SWIDTH 754 0
DWIDTH 9 0
BBX 7 11 1 0
BITMAP
0640
1450
0000
BFFC
8000
8000
BFF8
8000
8000
8000
BFFC
ENDCHAR
STARTCHAR Edieresis
ENCODING 203
SWIDTH 754 0
DWIDTH 9 0
BBX 7 10 1 0
BITMAP
0C90
0000
BFFC
8000
8000
BFF8
8000
8000
8000
BFFC
ENDCHAR
STARTCHAR Igrave
ENCODING 204
SWIDTH 287 0
DWIDTH 3 0
BBX 4 11 -1 0
BITMAP
60
09
00
08
08
08
08
08
08
08
08
ENDCHAR
STARTCHAR Iacute
ENCODING 205
SWIDTH 287 0
DWIDTH 3 0
BBX 3 11 1 0
BITMAP
18
90
00
80
80
80
80
80
80
80
80
ENDCHAR
STARTCHAR Icircumflex
ENCODING 206
SWIDTH 287 0
DWIDTH 3 0
BBX 5 11 -1 0
BITMAP
1900
5180
0000
0800
0800
0800
0800
0800
0800
0800
0800
ENDCHAR
STARTCHAR Idieresis
ENCODING 207
SWIDTH 287 0
DWIDTH 3 0
BBX 4 10 0 0
BITMAP
C9
00
20
20
20
20
20
20
20
20
ENDCHAR
STARTCHAR Eth
ENCODING 208
SWIDTH 910 0
DWIDTH 11 0
BBX 10 8 0 0
BITMAP
2FFE40
200190
200020
BFD020
200020
200020
200190
2FFE40
ENDCHAR
STARTCHAR Ntilde
ENCODING 209
SWIDTH 936 0
DWIDTH 11 0
BBX 9 11 1 0
BITMAP
038800
057400
000000
A00080
980080
860080
818080
806080
801880
800680
8001C0
ENDCHAR
STARTCHAR Ograve
ENCODING 210
SWIDTH 983 0
DWIDTH 12 0
BBX 10 11 1 0
BITMAP
024000
009000
000000
0BFA00
7401C0
800060
800020
800020
800060
7401D0
0BFA00
ENDCHAR
STARTCHAR Oacute
ENCODING 211
SWIDTH 983 0
DWIDTH 12 0
BBX 10 11 1 0
BITMAP
001800
005000
000000
0BFA00
7401C0
800060
800020
800020
800060
7401D0
0BFA00
ENDCHAR
STARTCHAR Ocircumflex
ENCODING 212
SWIDTH 983 0
DWIDTH 12 0
BBX 10 11 1 0
BITMAP
00A000
020800
000000
0BFA00
7401C0
800060
800020
800020
800060
7401D0
0BFA00
ENDCHAR
STARTCHAR Otilde
ENCODING 213
SWIDTH 983 0
DWIDTH 12 0
BBX 10 11 1 0
BITMAP
029800
027800
000000
0BFA00
7401C0
800060
800020
800020
800060
7401D0
0BFA00
ENDCHAR
STARTCHAR Odieresis
ENCODING 214
SWIDTH 983 0
DWIDTH 12 0
BBX 10 10 1 0
BITMAP
025800
000000
0BFA00
7401C0
800060
800020
800020
800060
7401D0
0BFA00
ENDCHAR
STARTCHAR multiply
ENCODING 215
SWIDTH 634 0
DWIDTH 8 0
BBX 5 5 1 2
BITMAP
5080
2640
0D00
2640
5080
ENDCHAR
STARTCHAR Oslash
ENCODING 216
SWIDTH 983 0
DWIDTH 12 0
BBX 10 10 1 -1
BITMAP
000180
0BFB00
7406C0
801860
802020
808020
820060
7901D0
1BFA00
200000
ENDCHAR
STARTCHAR Ugrave
ENCODING 217
SWIDTH 891 0
DWIDTH 11 0
BBX 9 11 1 0
BITMAP
050000
018000
000000
800140
800140
800140
800140
800140
800140
640700
1BF900
ENDCHAR
STARTCHAR Uacute
ENCODING 218
SWIDTH 891 0
DWIDTH 11 0
BBX 9 11 1 0
BITMAP
002400
019000
000000
800140
800140
800140
800140
800140
800140
640700
1BF900
ENDCHAR
STARTCHAR Ucircumflex
ENCODING 219
SWIDTH 891 0
DWIDTH 11 0
BBX 9 11 1 0
BITMAP
019000
051400
000000
800140
800140
800140
800140
800140
800140
640700
1BF900
ENDCHAR
STARTCHAR Udieresis
ENCODING 220
SWIDTH 891 0
DWIDTH 11 0
BBX 9 10 1 0
BITMAP
063000
000000
800140
800140
800140
800140
800140
800140
640700
1BF900
ENDCHAR
STARTCHAR Yacute
ENCODING 221
SWIDTH 763 0
DWIDTH 9 0
BBX 9 11 0 0
BITMAP
001400
009000
000000
600240
180500
091800
026000
00C000
008000
008000
008000
ENDCHAR
STARTCHAR Thorn
ENCODING 222
SWIDTH 787 0
DWIDTH 9 0
BBX 8 8 1 0
BITMAP
8000
BFF8
8009
8002
8009
BFF8
8000
8000
ENDCHAR
STARTCHAR germandbls
ENCODING 223
SWIDTH 863 0
DWIDTH 10 0
BBX 9 8 1 0
BITMAP
1BF800
640600
800600
87FD00
800640
800180
800640
8FF900
ENDCHAR
STARTCHAR agrave
ENCODING 224
SWIDTH 888 0
DWIDTH 11 0
BBX 10 11 0 0
BITMAP
024000
006000
000000
2FFE00
000180
000050
01AFD0
1A5050
600050
3406D0
1BF950
ENDCHAR
STARTCHAR aacute
ENCODING 225
SWIDTH 888 0
DWIDTH 11 0
BBX 10 11 0 0
BITMAP
000900
006000
000000
2FFE00
000180
000050
01AFD0
1A5050
600050
3406D0
1BF950
ENDCHAR
STARTCHAR acircumflex
ENCODING 226
SWIDTH 888 0
DWIDTH 11 0
BBX 10 11 0 0
BITMAP
006400
024500
000000
2FFE00
000180
000050
01AFD0
1A5050
600050
3406D0
1BF950
ENDCHAR
STARTCHAR atilde
ENCODING 227
SWIDTH 888 0
DWIDTH 11 0
BBX 10 11 0 0
BITMAP
01D500
022C00
000000
2FFE00
000180
000050
01AFD0
1A5050
600050
3406D0
1BF950
ENDCHAR
STARTCHAR adieresis
ENCODING 228
SWIDTH 888 0
DWIDTH 11 0
BBX 10 10 0 0
BITMAP
018C00
000000
2FFE00
000180
000050
01AFD0
1A5050
600050
3406D0
1BF950
ENDCHAR
STARTCHAR aring
ENCODING 229
SWIDTH 888 0
DWIDTH 11 0
BBX 10 11 0 0
BITMAP
00F800
00F800
000000
2FFE00
000180
000050
01AFD0
1A5050
600050
3406D0
1BF950
ENDCHAR
STARTCHAR ae
ENCODING 230
SWIDTH 1551 0
DWIDTH 19 0
BBX 18 8 0 0
BITMAP
2FFE06FE00
0001990190
0000600020
01AFFFFFF0
1A50600000
6000300000
3405AD0000
1BF906FFD0
ENDCHAR
STARTCHAR ccedilla
ENCODING 231
SWIDTH 869 0
DWIDTH 10 0
BBX 9 10 1 -2
BITMAP
0BF900
740580
800000
800000
800000
800000
740180
0BFA00
00E000
02E000
ENDCHAR
STARTCHAR egrave
ENCODING 232
SWIDTH 910 0
DWIDTH 11 0
BBX 9 11 1 0
BITMAP
060000
018000
000000
0BF900
640640
800080
FFFFC0
800000
D00000
740000
0BFF40
ENDCHAR
STARTCHAR eacute
ENCODING 233
SWIDTH 910 0
DWIDTH 11 0
BBX 9 11 1 0
BITMAP
002400
009000
000000
0BF900
640640
800080
FFFFC0
800000
D00000
740000
0BFF40
ENDCHAR
STARTCHAR ecircumflex
ENCODING 234
SWIDTH 910 0
DWIDTH 11 0
BBX 9 11 1 0
BITMAP
019000
051400
000000
0BF900
640640
800080
FFFFC0
800000
D00000
740000
0BFF40
ENDCHAR
STARTCHAR edieresis
ENCODING 235
SWIDTH 910 0
DWIDTH 11 0
BBX 9 10 1 0
BITMAP
022000
000000
0BF900
640640
800080
FFFFC0
800000
D00000
740000
0BFF40
ENDCHAR
STARTCHAR igrave
ENCODING 236
SWIDTH 287 0
DWIDTH 3 0
BBX 3 11 0 0
BITMAP
80
24
00
20
20
20
20
20
20
20
20
ENDCHAR
STARTCHAR iacute
ENCODING 237
SWIDTH 287 0
DWIDTH 3 0
BBX 3 11 1 0
BITMAP
18
90
00
80
80
80
80
80
80
80
80
ENDCHAR
STARTCHAR icircumflex
ENCODING 238
SWIDTH 287 0
DWIDTH 3 0
BBX 5 11 -1 0
BITMAP
1900
5180
0000
0800
0800
0800
0800
0800
0800
0800
0800
ENDCHAR
STARTCHAR idieresis
ENCODING 239
SWIDTH 287 0
DWIDTH 3 0
BBX 4 10 0 0
BITMAP
C9
00
20
20
20
20
20
20
20
20
ENDCHAR
STARTCHAR eth
ENCODING 240
SWIDTH 910 0
DWIDTH 11 0
BBX 10 8 0 0
BITMAP
2FFE40
200190
200020
BFD020
200020
200020
200190
2FFE40
ENDCHAR
STARTCHAR ntilde
ENCODING 241
SWIDTH 933 0
DWIDTH 11 0
BBX 9 11 1 0
BITMAP
078800
08B400
000000
86FE00
A90280
900080
800080
800080
800080
800080
800080
ENDCHAR
STARTCHAR ograve
ENCODING 242
SWIDTH 983 0
DWIDTH 12 0
BBX 10 11 1 0
BITMAP
024000
009000
000000
0BFA00
7401C0
800060
800020
800020
800060
7401D0
0BFA00
ENDCHAR
STARTCHAR oacute
ENCODING 243
SWIDTH 983 0
DWIDTH 12 0
BBX 10 11 1 0
BITMAP
001800
005000
000000
0BFA00
7401C0
800060
800020
800020
800060
7401D0
0BFA00
ENDCHAR
STARTCHAR ocircumflex
ENCODING 244
SWIDTH 983 0
DWIDTH 12 0
BBX 10 11 1 0
BITMAP
00A000
020800
000000
0BFA00
7401C0
800060
800020
800020
800060
7401D0
0BFA00
ENDCHAR
STARTCHAR otilde
ENCODING 245
SWIDTH 983 0
DWIDTH 12 0
BBX 10 11 1 0
BITMAP
029800
027800
000000
0BFA00
7401C0
800060
800020
800020
800060
7401D0
0BFA00
ENDCHAR
STARTCHAR odieresis
ENCODING 246
SWIDTH 983 0
DWIDTH 12 0
BBX 10 10 1 0
BITMAP
025800
000000
0BFA00
7401C0
800060
800020
800020
800060
7401D0
0BFA00
ENDCHAR
STARTCHAR divide
ENCODING 247
SWIDTH 634 0
DWIDTH 8 0
BBX 6 5 1 2
BITMAP
0900
0000
FFE0
0000
0900
ENDCHAR
STARTCHAR oslash
ENCODING 248
SWIDTH 983 0
DWIDTH 12 0
BBX 10 10 1 -1
BITMAP
000180
0BFB00
7406C0
801860
802020
808020
820060
7901D0
1BFA00
200000
ENDCHAR
STARTCHAR ugrave
ENCODING 249
SWIDTH 931 0
DWIDTH 11 0
BBX 9 11 1 0
BITMAP
060000
018000
000000
800080
800080
800080
800080
800080
800180
601A80
1FE480
ENDCHAR
STARTCHAR uacute
ENCODING 250
SWIDTH 931 0
DWIDTH 11 0
BBX 9 11 1 0
BITMAP
001400
009000
000000
800080
800080
800080
800080
800080
800180
601A80
1FE480
ENDCHAR
STARTCHAR ucircumflex
ENCODING 251
SWIDTH 931 0
DWIDTH 11 0
BBX 9 11 1 0
BITMAP
019000
051400
000000
800080
800080
800080
800080
800080
800180
601A80
1FE480
ENDCHAR
STARTCHAR udieresis
ENCODING 252
SWIDTH 931 0
DWIDTH 11 0
BBX 9 10 1 0
BITMAP
022400
000000
800080
800080
800080
800080
800080
800180
601A80
1FE480
ENDCHAR
STARTCHAR yacute
ENCODING 253
SWIDTH 911 0
DWIDTH 11 0
BBX 9 11 1 0
BITMAP
002400
019000
000000
800180
800180
800280
641A80
1BE580
000140
001B00
FFE800
ENDCHAR
STARTCHAR thorn
ENCODING 254
SWIDTH 787 0
DWIDTH 9 0
BBX 8 8 1 0
BITMAP
8000
BFF8
8009
8002
8009
BFF8
8000
8000
ENDCHAR
STARTCHAR ydieresis
ENCODING 255
SWIDTH 911 0
DWIDTH 11 0
BBX 9 10 1 0
BITMAP
063000
000000
800180
800180
800280
641A80
1BE580
000140
001B00
FFE800
ENDCHAR
STARTCHAR Amacron
ENCODING 256
SWIDTH 812 0
DWIDTH 10 0
BBX 10 10 0 0
BITMAP
02F800
000000
00A000
016000
020800
050900
080200
1FFF40
200080
900090
ENDCHAR
STARTCHAR amacron
ENCODING 257
SWIDTH 888 0
DWIDTH 11 0
BBX 10 10 0 0
BITMAP
01FC00
000000
2FFE00
000180
000050
01AFD0
1A5050
600050
3406D0
1BF950
ENDCHAR
STARTCHAR Abreve
ENCODING 258
SWIDTH 812 0
DWIDTH 10 0
BBX 10 11 0 0
BITMAP
021800
01F400
000000
00A000
016000
020800
050900
080200
1FFF40
200080
900090
ENDCHAR
STARTCHAR abreve
ENCODING 259
SWIDTH 888 0
DWIDTH 11 0
BBX 10 11 0 0
BITMAP
024800
00B800
000000
2FFE00
000180
000050
01AFD0
1A5050
600050
3406D0
1BF950
ENDCHAR
STARTCHAR Aogonek
ENCODING 260
SWIDTH 812 0
DWIDTH 10 0
BBX 11 10 0 -2
BITMAP
00A000
016000
020800
050900
080200
1FFF40
200080
900090
000080
0000F4
ENDCHAR
STARTCHAR aogonek
ENCODING 261
SWIDTH 888 0
DWIDTH 11 0
BBX 11 10 0 -2
BITMAP
2FFE00
000180
000050
01AFD0
1A5050
600050
340590
1BF950
000040
0001F4
ENDCHAR
STARTCHAR Cacute
ENCODING 262
SWIDTH 869 0
DWIDTH 10 0
BBX 9 11 1 0
BITMAP
001800
009000
000000
0BF900
740580
800000
800000
800000
800000
740180
0BFA00
ENDCHAR
STARTCHAR cacute
ENCODING 263
SWIDTH 869 0
DWIDTH 10 0
BBX 9 11 1 0
BITMAP
001800
009000
000000
0BF900
740580
800000
800000
800000
800000
740180
0BFA00
ENDCHAR
STARTCHAR Ccircumflex
ENCODING 264
SWIDTH 869 0
DWIDTH 10 0
BBX 9 11 1 0
BITMAP
00A000
061800
000000
0BF900
740580
800000
800000
800000
800000
740180
0BFA00
ENDCHAR
STARTCHAR ccircumflex
ENCODING 265
SWIDTH 869 0
DWIDTH 10 0
BBX 9 11 1 0
BITMAP
00A000
061800
000000
0BF900
740580
800000
800000
800000
800000
740180
0BFA00
ENDCHAR
STARTCHAR Cdotaccent
ENCODING 266
SWIDTH 869 0
DWIDTH 10 0
BBX 9 10 1 0
BITMAP
009000
000000
0BF900
740580
800000
800000
800000
800000
740180
0BFA00
ENDCHAR
STARTCHAR cdotaccent
ENCODING 267
SWIDTH 869 0
DWIDTH 10 0
BBX 9 10 1 0
BITMAP
009000
000000
0BF900
740580
800000
800000
800000
800000
740180
0BFA00
ENDCHAR
STARTCHAR Ccaron
ENCODING 268
SWIDTH 869 0
DWIDTH 10 0
BBX 9 11 1 0
BITMAP
061800
00A000
000000
0BF900
740580
800000
800000
800000
800000
740180
0BFA00
ENDCHAR
STARTCHAR ccaron
ENCODING 269
SWIDTH 869 0
DWIDTH 10 0
BBX 9 11 1 0
BITMAP
061800
00A000
000000
0BF900
740580
800000
800000
800000
800000
740180
0BFA00
ENDCHAR
STARTCHAR Dcaron
ENCODING 270
SWIDTH 910 0
DWIDTH 11 0
BBX 9 11 1 0
BITMAP
145000
064000
000000
BFF900
800640
800080
800080
800080
800080
800640
BFF900
ENDCHAR
STARTCHAR dcaron
ENCODING 271
SWIDTH 910 0
DWIDTH 11 0
BBX 9 11 1 0
BITMAP
145000
064000
000000
BFF900
800640
800080
800080
800080
800080
800640
BFF900
ENDCHAR
STARTCHAR Dcroat
ENCODING 272
SWIDTH 910 0
DWIDTH 11 0
BBX 10 8 0 0
BITMAP
2FFE40
200190
200020
BFD020
200020
200020
200190
2FFE40
ENDCHAR
STARTCHAR dcroat
ENCODING 273
SWIDTH 910 0
DWIDTH 11 0
BBX 10 8 0 0
BITMAP
2FFE40
200190
200020
BFD020
200020
200020
200190
2FFE40
ENDCHAR
STARTCHAR Emacron
ENCODING 274
SWIDTH 754 0
DWIDTH 9 0
BBX 7 10 1 0
BITMAP
0FD0
0000
BFFC
8000
8000
BFF8
8000
8000
8000
BFFC
ENDCHAR
STARTCHAR emacron
ENCODING 275
SWIDTH 910 0
DWIDTH 11 0
BBX 9 10 1 0
BITMAP
03F000
000000
0BF900
640640
800080
FFFFC0
800000
D00000
740000
0BFF40
ENDCHAR
STARTCHAR Ebreve
ENCODING 276
SWIDTH 754 0
DWIDTH 9 0
BBX 7 11 1 0
BITMAP
1860
0B80
0000
BFFC
8000
8000
BFF8
8000
8000
8000
BFFC
ENDCHAR
STARTCHAR ebreve
ENCODING 277
SWIDTH 910 0
DWIDTH 11 0
BBX 9 11 1 0
BITMAP
051400
02E000
000000
0BF900
640640
800080
FFFFC0
800000
D00000
740000
0BFF40
ENDCHAR
STARTCHAR Edotaccent
ENCODING 278
SWIDTH 754 0
DWIDTH 9 0
BBX 7 10 1 0
BITMAP
0200
0000
BFFC
8000
8000
BFF8
8000
8000
8000
BFFC
ENDCHAR
STARTCHAR edotaccent
ENCODING 279
SWIDTH 910 0
DWIDTH 11 0
BBX 9 10 1 0
BITMAP
00C000
000000
0BF900
640640
800080
FFFFC0
800000
D00000
740000
0BFF40
ENDCHAR
STARTCHAR Eogonek
ENCODING 280
SWIDTH 754 0
DWIDTH 9 0
BBX 7 10 1 -2
BITMAP
BFFC
8000
8000
BFF8
8000
8000
8000
BFFC
0010
007C
ENDCHAR
STARTCHAR eogonek
ENCODING 281
SWIDTH 910 0
DWIDTH 11 0
BBX 9 10 1 -2
BITMAP
0BF900
640640
800080
FFFFC0
800000
D00000
740000
0BFF40
000500
0007C0
ENDCHAR
STARTCHAR Ecaron
ENCODING 282
SWIDTH 754 0
DWIDTH 9 0
BBX 7 11 1 0
BITMAP
1450
0640
0000
BFFC
8000
8000
BFF8
8000
8000
8000
BFFC
ENDCHAR
STARTCHAR ecaron
ENCODING 283
SWIDTH 910 0
DWIDTH 11 0
BBX 9 11 1 0
BITMAP
051400
019000
000000
0BF900
640640
800080
FFFFC0
800000
D00000
740000
0BFF40
ENDCHAR
STARTCHAR Gcircumflex
ENCODING 284
SWIDTH 910 0
DWIDTH 11 0
BBX 9 11 1 0
BITMAP
00A000
020800
000000
0BFE00
740180
800000
800000
803FC0
800080
740080
0AFE40
ENDCHAR
STARTCHAR gcircumflex
ENCODING 285
SWIDTH 910 0
DWIDTH 11 0
BBX 9 11 1 0
BITMAP
00A000
020800
000000
0BFE00
740180
800000
800000
803FC0
800080
740080
0AFE40
ENDCHAR
STARTCHAR Gbreve
ENCODING 286
SWIDTH 910 0
DWIDTH 11 0
BBX 9 11 1 0
BITMAP
020800
01F400
000000
0BFE00
740180
800000
800000
803FC0
800080
740080
0AFE40
ENDCHAR
STARTCHAR gbreve
ENCODING 287
SWIDTH 910 0
DWIDTH 11 0
BBX 9 11 1 0
BITMAP
020800
01F400
000000
0BFE00
740180
800000
800000
803FC0
800080
740080
0AFE40
ENDCHAR
STARTCHAR Gdotaccent
ENCODING 288
SWIDTH 910 0
DWIDTH 11 0
BBX 9 10 1 0
BITMAP
009000
000000
0BFE00
740180
800000
800000
803FC0
800080
740080
0AFE40
ENDCHAR
STARTCHAR gdotaccent
ENCODING 289
SWIDTH 910 0
DWIDTH 11 0
BBX 9 10 1 0
BITMAP
009000
000000
0BFE00
740180
800000
800000
803FC0
800080
740080
0AFE40
ENDCHAR
STARTCHAR Gcommaaccent
ENCODING 290
SWIDTH 910 0
DWIDTH 11 0
BBX 9 11 1 -3
BITMAP
0BFE00
740180
800000
800000
803FC0
800080
740080
0AFE40
000000
005000
005000
ENDCHAR
STARTCHAR gcommaaccent
ENCODING 291
SWIDTH 910 0
DWIDTH 11 0
BBX 9 11 1 -3
BITMAP
0BFE00
740180
800000
800000
803FC0
800080
740080
0AFE40
000000
005000
005000
ENDCHAR
STARTCHAR Hcircumflex
ENCODING 292
SWIDTH 949 0
DWIDTH 11 0
BBX 9 11 1 0
BITMAP
019000
051800
000000
800080
800080
800080
BFFFC0
800080
800080
800080
800080
ENDCHAR
STARTCHAR hcircumflex
ENCODING 293
SWIDTH 949 0
DWIDTH 11 0
BBX 9 11 1 0
BITMAP
019000
051800
000000
800080
800080
800080
BFFFC0
800080
800080
800080
800080
ENDCHAR
STARTCHAR Hbar
ENCODING 294
SWIDTH 949 0
DWIDTH 11 0
BBX 11 8 0 0
BITMAP
200020
BFFFFC
200020
2FFFF0
200020
200020
200020
200020
ENDCHAR
STARTCHAR hbar
ENCODING 295
SWIDTH 949 0
DWIDTH 11 0
BBX 11 8 0 0
BITMAP
200020
BFFFFC
200020
2FFFF0
200020
200020
200020
200020
ENDCHAR
STARTCHAR Itilde
ENCODING 296
SWIDTH 287 0
DWIDTH 3 0
BBX 5 11 -1 0
BITMAP
3880
5740
0000
0800
0800
0800
0800
0800
0800
0800
0800
ENDCHAR
STARTCHAR itilde
ENCODING 297
SWIDTH 287 0
DWIDTH 3 0
BBX 5 11 -1 0
BITMAP
2880
5740
0000
0800
0800
0800
0800
0800
0800
0800
0800
ENDCHAR
STARTCHAR Imacron
ENCODING 298
SWIDTH 287 0
DWIDTH 3 0
BBX 4 10 0 0
BITMAP
FD
00
20
20
20
20
20
20
20
20
ENDCHAR
STARTCHAR imacron
ENCODING 299
SWIDTH 287 0
DWIDTH 3 0
BBX 4 10 0 0
BITMAP
FD
00
20
20
20
20
20
20
20
20
ENDCHAR
STARTCHAR Ibreve
ENCODING 300
SWIDTH 287 0
DWIDTH 3 0
BBX 5 11 -1 0
BITMAP
6180
2E00
0000
0800
0800
0800
0800
0800
0800
0800
0800
ENDCHAR
STARTCHAR ibreve
ENCODING 301
SWIDTH 287 0
DWIDTH 3 0
BBX 4 11 0 0
BITMAP
86
78
00
20
20
20
20
20
20
20
20
ENDCHAR
STARTCHAR Iogonek
ENCODING 302
SWIDTH 287 0
DWIDTH 3 0
BBX 3 10 0 -2
BITMAP
20
20
20
20
20
20
20
20
50
BC
ENDCHAR
STARTCHAR iogonek
ENCODING 303
SWIDTH 287 0
DWIDTH 3 0
BBX 3 10 0 -2
BITMAP
20
20
20
20
20
20
20
20
50
BC
ENDCHAR
STARTCHAR Idotaccent
ENCODING 304
SWIDTH 287 0
DWIDTH 3 0
BBX 2 10 1 0
BITMAP
90
00
80
80
80
80
80
80
80
80
ENDCHAR
STARTCHAR dotlessi
ENCODING 305
SWIDTH 287 0
DWIDTH 3 0
BBX 1 8 1 0
BITMAP
80
80
80
80
80
80
80
80
ENDCHAR
STARTCHAR IJ
ENCODING 306
SWIDTH 877 0
DWIDTH 11 0
BBX 9 8 1 0
BITMAP
800240
800240
800240
800240
800240
800240
800700
8BF900
ENDCHAR
STARTCHAR ij
ENCODING 307
SWIDTH 877 0
DWIDTH 11 0
BBX 9 8 1 0
BITMAP
800240
800240
800240
800240
800240
800240
800700
8BF900
ENDCHAR
STARTCHAR Jcircumflex
ENCODING 308
SWIDTH 590 0
DWIDTH 7 0
BBX 8 11 0 0
BITMAP
0064
0145
0000
0020
0020
0020
0020
0020
0020
0090
FF80
ENDCHAR
STARTCHAR jcircumflex
ENCODING 309
SWIDTH 590 0
DWIDTH 7 0
BBX 8 11 0 0
BITMAP
0064
0145
0000
0020
0020
0020
0020
0020
0020
0090
FF80
ENDCHAR
STARTCHAR Kcommaaccent
ENCODING 310
SWIDTH 806 0
DWIDTH 10 0
BBX 8 11 1 -3
BITMAP
8009
8060
8240
A800
9900
8280
8064
800A
0000
0240
0200
ENDCHAR
STARTCHAR kcommaaccent
ENCODING 311
SWIDTH 867 0
DWIDTH 10 0
BBX 9 11 1 -3
BITMAP
800200
800600
806400
BFD000
806800
800600
800240
800180
000000
018000
014000
ENDCHAR
STARTCHAR kgreenlandic
ENCODING 312
SWIDTH 867 0
DWIDTH 10 0
BBX 9 8 1 0
BITMAP
800200
800600
806400
BFD000
806800
800600
800240
800180
ENDCHAR
STARTCHAR Lacute
ENCODING 313
SWIDTH 701 0
DWIDTH 8 0
BBX 7 11 1 0
BITMAP
1800
9000
0000
8000
8000
8000
8000
8000
8000
8000
BFFC
ENDCHAR
STARTCHAR lacute
ENCODING 314
SWIDTH 709 0
DWIDTH 9 0
BBX 8 11 1 0
BITMAP
1800
9000
0000
8000
8000
8000
8000
8000
8000
6000
2FFD
ENDCHAR
STARTCHAR Lcommaaccent
ENCODING 315
SWIDTH 701 0
DWIDTH 8 0
BBX 7 11 1 -3
BITMAP
8000
8000
8000
8000
8000
8000
8000
BFFC
0000
0200
0200
ENDCHAR
STARTCHAR lcommaaccent
ENCODING 316
SWIDTH 709 0
DWIDTH 9 0
BBX 8 11 1 -3
BITMAP
8000
8000
8000
8000
8000
8000
6000
2FFD
0000
0140
0200
ENDCHAR
STARTCHAR Lcaron
ENCODING 317
SWIDTH 701 0
DWIDTH 8 0
BBX 7 8 1 0
BITMAP
8090
8080
8000
8000
8000
8000
8000
BFFC
ENDCHAR
STARTCHAR lcaron
ENCODING 318
SWIDTH 709 0
DWIDTH 9 0
BBX 8 8 1 0
BITMAP
8090
8080
8000
8000
8000
8000
6000
2FFD
ENDCHAR
STARTCHAR Ldot
ENCODING 319
SWIDTH 701 0
DWIDTH 8 0
BBX 7 8 1 0
BITMAP
8000
8000
8000
8090
8000
8000
8000
BFFC
ENDCHAR
STARTCHAR ldotaccent
ENCODING 320
SWIDTH 709 0
DWIDTH 9 0
BBX 8 8 1 0
BITMAP
8000
8000
8000
8060
8000
8000
6000
2FFD
ENDCHAR
STARTCHAR Lslash
ENCODING 321
SWIDTH 701 0
DWIDTH 8 0
BBX 8 8 0 0
BITMAP
2000
2000
2000
2640
B400
2000
2000
2FFF
ENDCHAR
STARTCHAR lslash
ENCODING 322
SWIDTH 709 0
DWIDTH 9 0
BBX 9 8 0 0
BITMAP
200000
200000
200000
264000
B40000
200000
180000
0BFF40
ENDCHAR
STARTCHAR Nacute
ENCODING 323
SWIDTH 936 0
DWIDTH 11 0
BBX 9 11 1 0
BITMAP
001400
009000
000000
A00080
980080
860080
818080
806080
801880
800680
8001C0
ENDCHAR
STARTCHAR nacute
ENCODING 324
SWIDTH 933 0
DWIDTH 11 0
BBX 9 11 1 0
BITMAP
002400
009000
000000
86FE00
A90280
900080
800080
800080
800080
800080
800080
ENDCHAR
STARTCHAR Ncommaaccent
ENCODING 325
SWIDTH 936 0
DWIDTH 11 0
BBX 9 11 1 -3
BITMAP
A00080
980080
860080
818080
806080
801880
800680
8001C0
000000
008000
008000
ENDCHAR
STARTCHAR ncommaaccent
ENCODING 326
SWIDTH 933 0
DWIDTH 11 0
BBX 9 11 1 -3
BITMAP
86FE00
A90280
900080
800080
800080
800080
800080
800080
000000
008000
008000
ENDCHAR
STARTCHAR Ncaron
ENCODING 327
SWIDTH 936 0
DWIDTH 11 0
BBX 9 11 1 0
BITMAP
051400
019000
000000
A00080
980080
860080
818080
806080
801880
800680
8001C0
ENDCHAR
STARTCHAR ncaron
ENCODING 328
SWIDTH 933 0
DWIDTH 11 0
BBX 9 11 1 0
BITMAP
051400
019000
000000
86FE00
A90280
900080
800080
800080
800080
800080
800080
ENDCHAR
STARTCHAR napostrophe
ENCODING 329
SWIDTH 1025 0
DWIDTH 12 0
BBX 11 8 0 0
BITMAP
892FE0
8A9018
090008
090008
090008
090008
090008
090008
ENDCHAR
STARTCHAR Eng
ENCODING 330
SWIDTH 936 0
DWIDTH 11 0
BBX 9 8 1 0
BITMAP
A00080
990080
824080
806080
800980
800280
800180
81FE00
ENDCHAR
STARTCHAR eng
ENCODING 331
SWIDTH 933 0
DWIDTH 11 0
BBX 9 8 1 0
BITMAP
86FE00
A90280
900080
800080
800080
800080
800180
81FE00
ENDCHAR
STARTCHAR Omacron
ENCODING 332
SWIDTH 983 0
DWIDTH 12 0
BBX 10 10 1 0
BITMAP
02F800
000000
0BFA00
7401C0
800060
800020
800020
800060
7401D0
0BFA00
ENDCHAR
STARTCHAR omacron
ENCODING 333
SWIDTH 983 0
DWIDTH 12 0
BBX 10 10 1 0
BITMAP
02F800
000000
0BFA00
7401C0
800060
800020
800020
800060
7401D0
0BFA00
ENDCHAR
STARTCHAR Obreve
ENCODING 334
SWIDTH 983 0
DWIDTH 12 0
BBX 10 11 1 0
BITMAP
020800
01F400
000000
0BFA00
7401C0
800060
800020
800020
800060
7401D0
0BFA00
ENDCHAR
STARTCHAR obreve
ENCODING 335
SWIDTH 983 0
DWIDTH 12 0
BBX 10 11 1 0
BITMAP
020800
01F400
000000
0BFA00
7401C0
800060
800020
800020
800060
7401D0
0BFA00
ENDCHAR
STARTCHAR Ohungarumlaut
ENCODING 336
SWIDTH 983 0
DWIDTH 12 0
BBX 10 11 1 0
BITMAP
008900
015400
000000
0BFA00
7401C0
800060
800020
800020
800060
7401D0
0BFA00
ENDCHAR
STARTCHAR ohungarumlaut
ENCODING 337
SWIDTH 983 0
DWIDTH 12 0
BBX 10 11 1 0
BITMAP
008900
015400
000000
0BFA00
7401C0
800060
800020
800020
800060
7401D0
0BFA00
ENDCHAR
STARTCHAR OE
ENCODING 338
SWIDTH 1338 0
DWIDTH 16 0
BBX 14 8 1 0
BITMAP
0BFFFFF0
74020000
80020000
8002FFE0
80020000
80020000
74020000
0BFFFFF0
ENDCHAR
STARTCHAR oe
ENCODING 339
SWIDTH 1688 0
DWIDTH 20 0
BBX 19 8 1 0
BITMAP
0BFA01BF80
7401C94060
8000740014
80002FFFF8
8000200000
8000780000
7401CA4000
0BFE01BFF0
ENDCHAR
STARTCHAR Racute
ENCODING 340
SWIDTH 833 0
DWIDTH 10 0
BBX 9 11 1 0
BITMAP
009000
024000
000000
BFF800
800600
800200
800600
BFF800
801400
800900
800240
ENDCHAR
STARTCHAR racute
ENCODING 341
SWIDTH 609 0
DWIDTH 7 0
BBX 7 11 1 0
BITMAP
0180
0600
0000
86F4
A900
9000
8000
8000
8000
8000
8000
ENDCHAR
STARTCHAR Rcommaaccent
ENCODING 342
SWIDTH 833 0
DWIDTH 10 0
BBX 9 11 1 -3
BITMAP
BFF800
800600
800200
800600
BFF800
801400
800900
800240
000000
014000
020000
ENDCHAR
STARTCHAR rcommaaccent
ENCODING 343
SWIDTH 609 0
DWIDTH 7 0
BBX 7 11 1 -3
BITMAP
86F4
A900
9000
8000
8000
8000
8000
8000
0000
8000
8000
ENDCHAR
STARTCHAR Rcaron
ENCODING 344
SWIDTH 833 0
DWIDTH 10 0
BBX 9 11 1 0
BITMAP
145000
064000
000000
BFF800
800600
800200
800600
BFF800
801400
800900
800240
ENDCHAR
STARTCHAR rcaron
ENCODING 345
SWIDTH 609 0
DWIDTH 7 0
BBX 7 11 1 0
BITMAP
2080
0A00
0000
86F4
A900
9000
8000
8000
8000
8000
8000
ENDCHAR
STARTCHAR Sacute
ENCODING 346
SWIDTH 787 0
DWIDTH 9 0
BBX 8 11 1 0
BITMAP
0050
0240
0000
6FFC
9000
9000
2E40
0168
0005
0019
FFE4
ENDCHAR
STARTCHAR sacute
ENCODING 347
SWIDTH 787 0
DWIDTH 9 0
BBX 8 11 1 0
BITMAP
0050
0240
0000
6FFC
9000
9000
2E40
0168
0005
0019
FFE4
ENDCHAR
STARTCHAR Scircumflex
ENCODING 348
SWIDTH 787 0
DWIDTH 9 0
BBX 8 11 1 0
BITMAP
0640
1450
0000
6FFC
9000
9000
2E40
0168
0005
0019
FFE4
ENDCHAR
STARTCHAR scircumflex
ENCODING 349
SWIDTH 787 0
DWIDTH 9 0
BBX 8 11 1 0
BITMAP
0640
1450
0000
6FFC
9000
9000
2E40
0168
0005
0019
FFE4
ENDCHAR
STARTCHAR Scedilla
ENCODING 350
SWIDTH 787 0
DWIDTH 9 0
BBX 8 10 1 -2
BITMAP
6FFC
9000
9000
2E40
0168
0005
0019
FFE4
0280
0B80
ENDCHAR
STARTCHAR scedilla
ENCODING 351
SWIDTH 787 0
DWIDTH 9 0
BBX 8 10 1 -2
BITMAP
6FFC
9000
9000
2E40
0168
0005
0019
FFE4
0280
0B80
ENDCHAR
STARTCHAR Scaron
ENCODING 352
SWIDTH 787 0
DWIDTH 9 0
BBX 8 11 1 0
BITMAP
1450
0640
0000
6FFC
9000
9000
2E40
0168
0005
0019
FFE4
ENDCHAR
STARTCHAR scaron
ENCODING 353
SWIDTH 787 0
DWIDTH 9 0
BBX 8 11 1 0
BITMAP
1450
0640
0000
6FFC
9000
9000
2E40
0168
0005
0019
FFE4
ENDCHAR
STARTCHAR Tcommaaccent
ENCODING 354
SWIDTH 708 0
DWIDTH 9 0
BBX 9 11 0 -3
BITMAP
BFFF40
008000
008000
008000
008000
008000
008000
008000
000000
008000
014000
ENDCHAR
STARTCHAR tcommaaccent
ENCODING 355
SWIDTH 708 0
DWIDTH 9 0
BBX 9 11 0 -3
BITMAP
BFFF40
008000
008000
008000
008000
008000
008000
008000
000000
008000
014000
ENDCHAR
STARTCHAR Tcaron
ENCODING 356
SWIDTH 708 0
DWIDTH 9 0
BBX 9 11 0 0
BITMAP
091400
018000
000000
BFFF40
008000
008000
008000
008000
008000
008000
008000
ENDCHAR
STARTCHAR tcaron
ENCODING 357
SWIDTH 708 0
DWIDTH 9 0
BBX 9 11 0 0
BITMAP
091400
019000
000000
BFFF40
008000
008000
008000
008000
008000
008000
008000
ENDCHAR
STARTCHAR Tbar
ENCODING 358
SWIDTH 708 0
DWIDTH 9 0
BBX 9 8 0 0
BITMAP
BFFF40
008000
008000
3FFD00
008000
008000
008000
008000
ENDCHAR
STARTCHAR tbar
ENCODING 359
SWIDTH 708 0
DWIDTH 9 0
BBX 9 8 0 0
BITMAP
BFFF40
008000
008000
3FFD00
008000
008000
008000
008000
ENDCHAR
STARTCHAR Utilde
ENCODING 360
SWIDTH 891 0
DWIDTH 11 0
BBX 9 11 1 0
BITMAP
075400
08B000
000000
800140
800140
800140
800140
800140
800140
640700
1BF900
ENDCHAR
STARTCHAR utilde
ENCODING 361
SWIDTH 931 0
DWIDTH 11 0
BBX 9 11 1 0
BITMAP
038800
057400
000000
800080
800080
800080
800080
800080
800180
601A80
1FE480
ENDCHAR
STARTCHAR Umacron
ENCODING 362
SWIDTH 891 0
DWIDTH 11 0
BBX 9 10 1 0
BITMAP
07F000
000000
800140
800140
800140
800140
800140
800140
640700
1BF900
ENDCHAR
STARTCHAR umacron
ENCODING 363
SWIDTH 931 0
DWIDTH 11 0
BBX 9 10 1 0
BITMAP
03F400
000000
800080
800080
800080
800080
800080
800180
601A80
1FE480
ENDCHAR
STARTCHAR Ubreve
ENCODING 364
SWIDTH 891 0
DWIDTH 11 0
BBX 9 11 1 0
BITMAP
092400
02E000
000000
800140
800140
800140
800140
800140
800140
640700
1BF900
ENDCHAR
STARTCHAR ubreve
ENCODING 365
SWIDTH 931 0
DWIDTH 11 0
BBX 9 11 1 0
BITMAP
061400
02E000
000000
800080
800080
800080
800080
800080
800180
601A80
1FE480
ENDCHAR
STARTCHAR Uring
ENCODING 366
SWIDTH 891 0
DWIDTH 11 0
BBX 9 11 1 0
BITMAP
02E000
02E000
000000
800140
800140
800140
800140
800140
800140
640700
1BF900
ENDCHAR
STARTCHAR uring
ENCODING 367
SWIDTH 931 0
DWIDTH 11 0
BBX 9 11 1 0
BITMAP
02E000
02E000
000000
800080
800080
800080
800080
800080
800180
601A80
1FE480
ENDCHAR
STARTCHAR Uhungarumlaut
ENCODING 368
SWIDTH 891 0
DWIDTH 11 0
BBX 9 11 1 0
BITMAP
015800
022000
000000
800140
800140
800140
800140
800140
800140
640700
1BF900
ENDCHAR
STARTCHAR uhungarumlaut
ENCODING 369
SWIDTH 931 0
DWIDTH 11 0
BBX 9 11 1 0
BITMAP
008800
022000
000000
800080
800080
800080
800080
800080
800180
601A80
1FE480
ENDCHAR
STARTCHAR Uogonek
ENCODING 370
SWIDTH 891 0
DWIDTH 11 0
BBX 9 10 1 -2
BITMAP
800140
800140
800140
800140
800140
800140
640700
1BF900
014000
02E000
ENDCHAR
STARTCHAR uogonek
ENCODING 371
SWIDTH 931 0
DWIDTH 11 0
BBX 10 10 1 -2
BITMAP
800080
800080
800080
800080
800080
800180
601A80
1FE480
000200
0002E0
ENDCHAR
STARTCHAR Wcircumflex
ENCODING 372
SWIDTH 1266 0
DWIDTH 15 0
BBX 15 11 0 0
BITMAP
00064000
00145000
00000000
50034018
20058020
24088020
08185050
08202080
05202580
02501A00
02C00A00
ENDCHAR
STARTCHAR wcircumflex
ENCODING 373
SWIDTH 1266 0
DWIDTH 15 0
BBX 15 11 0 0
BITMAP
00064000
00145000
00000000
50034018
20058020
24088020
08185050
08202080
05202580
02501A00
02C00A00
ENDCHAR
STARTCHAR Ycircumflex
ENCODING 374
SWIDTH 763 0
DWIDTH 9 0
BBX 9 11 0 0
BITMAP
019000
051400
000000
600240
180500
091800
026000
00C000
008000
008000
008000
ENDCHAR
STARTCHAR ycircumflex
ENCODING 375
SWIDTH 911 0
DWIDTH 11 0
BBX 9 11 1 0
BITMAP
019000
091400
000000
800180
800180
800280
641A80
1BE580
000140
001B00
FFE800
ENDCHAR
STARTCHAR Ydieresis
ENCODING 376
SWIDTH 763 0
DWIDTH 9 0
BBX 9 10 0 0
BITMAP
032400
000000
600240
180500
091800
026000
00C000
008000
008000
008000
ENDCHAR
STARTCHAR Zacute
ENCODING 377
SWIDTH 728 0
DWIDTH 9 0
BBX 7 11 1 0
BITMAP
0090
0240
0000
FFF8
0010
0040
0100
0400
1400
5000
FFFC
ENDCHAR
STARTCHAR zacute
ENCODING 378
SWIDTH 728 0
DWIDTH 9 0
BBX 7 11 1 0
BITMAP
0090
0240
0000
FFF8
0010
0040
0100
0400
1400
5000
FFFC
ENDCHAR
STARTCHAR Zdotaccent
ENCODING 379
SWIDTH 728 0
DWIDTH 9 0
BBX 7 10 1 0
BITMAP
0300
0000
FFF8
0010
0040
0100
0400
1400
5000
FFFC
ENDCHAR
STARTCHAR zdotaccent
ENCODING 380
SWIDTH 728 0
DWIDTH 9 0
BBX 7 10 1 0
BITMAP
0300
0000
FFF8
0010
0040
0100
0400
1400
5000
FFFC
ENDCHAR
STARTCHAR Zcaron
ENCODING 381
SWIDTH 728 0
DWIDTH 9 0
BBX 7 11 1 0
BITMAP
1450
0640
0000
FFF8
0010
0040
0100
0400
1400
5000
FFFC
ENDCHAR
STARTCHAR zcaron
ENCODING 382
SWIDTH 728 0
DWIDTH 9 0
BBX 7 11 1 0
BITMAP
1450
0640
0000
FFF8
0010
0040
0100
0400
1400
5000
FFFC
ENDCHAR
STARTCHAR florin
ENCODING 402
SWIDTH 835 0
DWIDTH 10 0
BBX 10 8 0 0
BITMAP
000BE0
001800
002000
02FE00
006000
008000
018000
BE0000
ENDCHAR
STARTCHAR AEacute
ENCODING 508
SWIDTH 1172 0
DWIDTH 14 0
BBX 14 11 0 0
BITMAP
00001800
00009000
00000000
003FFFC0
00990000
01890000
020BFF80
09090000
1FFD0000
20090000
900BFFD0
ENDCHAR
STARTCHAR aeacute
ENCODING 509
SWIDTH 1551 0
DWIDTH 19 0
BBX 18 11 0 0
BITMAP
0000090000
0000240000
0000000000
2FFE06FE00
0001990190
0000600020
01AFFFFFF0
1A50600000
6000300000
3405AD0000
1BF906FFD0
ENDCHAR
STARTCHAR Oslashacute
ENCODING 510
SWIDTH 983 0
DWIDTH 12 0
BBX 10 12 1 -1
BITMAP
001800
005000
000180
0BFB00
7406C0
801860
802020
808020
820060
7901D0
1BFA00
200000
ENDCHAR
STARTCHAR oslashacute
ENCODING 511
SWIDTH 983 0
DWIDTH 12 0
BBX 10 12 1 -1
BITMAP
001800
005000
000180
0BFB00
7406C0
801860
802020
808020
820060
7901D0
1BFA00
200000
ENDCHAR
STARTCHAR dotlessj
ENCODING 567
SWIDTH 590 0
DWIDTH 7 0
BBX 6 8 0 0
BITMAP
0020
0020
0020
0020
0020
0020
0090
FF80
ENDCHAR
STARTCHAR circumflex
ENCODING 710
SWIDTH 527 0
DWIDTH 6 0
BBX 5 2 1 7
BITMAP
2800
9240
ENDCHAR
STARTCHAR caron
ENCODING 711
SWIDTH 527 0
DWIDTH 6 0
BBX 5 2 1 7
BITMAP
9240
2800
ENDCHAR
STARTCHAR breve
ENCODING 728
SWIDTH 527 0
DWIDTH 6 0
BBX 4 2 1 7
BITMAP
92
3D
ENDCHAR
STARTCHAR dotaccent
ENCODING 729
SWIDTH 527 0
DWIDTH 6 0
BBX 2 1 2 7
BITMAP
60
ENDCHAR
STARTCHAR ring
ENCODING 730
SWIDTH 527 0
DWIDTH 6 0
BBX 3 2 2 7
BITMAP
F4
F4
ENDCHAR
STARTCHAR ogonek
ENCODING 731
SWIDTH 527 0
DWIDTH 6 0
BBX 3 2 2 -2
BITMAP
40
F4
ENDCHAR
STARTCHAR tilde
ENCODING 732
SWIDTH 527 0
DWIDTH 6 0
BBX 5 2 1 7
BITMAP
7540
8A00
ENDCHAR
STARTCHAR hungarumlaut
ENCODING 733
SWIDTH 527 0
DWIDTH 6 0
BBX 5 2 1 7
BITMAP
1540
5600
ENDCHAR
STARTCHAR commaaccent
ENCODING 806
SWIDTH 527 0
DWIDTH 6 0
BBX 2 2 2 -3
BITMAP
60
50
ENDCHAR
STARTCHAR mu
ENCODING 956
SWIDTH 705 0
DWIDTH 8 0
BBX 8 8 0 -2
BITMAP
0805
1408
2408
2018
3468
2B88
5000
5000
ENDCHAR
STARTCHAR Wgrave
ENCODING 7808
SWIDTH 1266 0
DWIDTH 15 0
BBX 15 11 0 0
BITMAP
00180000
00060000
00000000
50034018
20058020
24088020
08185050
08202080
05202580
02501A00
02C00A00
ENDCHAR
STARTCHAR wgrave
ENCODING 7809
SWIDTH 1266 0
DWIDTH 15 0
BBX 15 11 0 0
BITMAP
00180000
00060000
00000000
50034018
20058020
24088020
08185050
08202080
05202580
02501A00
02C00A00
ENDCHAR
STARTCHAR Wacute
ENCODING 7810
SWIDTH 1266 0
DWIDTH 15 0
BBX 15 11 0 0
BITMAP
00005000
00024000
00000000
50034018
20058020
24088020
08185050
08202080
05202580
02501A00
02C00A00
ENDCHAR
STARTCHAR wacute
ENCODING 7811
SWIDTH 1266 0
DWIDTH 15 0
BBX 15 11 0 0
BITMAP
00005000
00024000
00000000
50034018
20058020
24088020
08185050
08202080
05202580
02501A00
02C00A00
ENDCHAR
STARTCHAR Wdieresis
ENCODING 7812
SWIDTH 1266 0
DWIDTH 15 0
BBX 15 10 0 0
BITMAP
000C9000
00000000
50034018
20058020
24088020
08185050
08202080
05202580
02501A00
02C00A00
ENDCHAR
STARTCHAR wdieresis
ENCODING 7813
SWIDTH 1266 0
DWIDTH 15 0
BBX 15 10 0 0
BITMAP
000C9000
00000000
50034018
20058020
24088020
08185050
08202080
05202580
02501A00
02C00A00
ENDCHAR
STARTCHAR Ygrave
ENCODING 7922
SWIDTH 763 0
DWIDTH 9 0
BBX 9 11 0 0
BITMAP
060000
018000
000000
600240
180500
091800
026000
00C000
008000
008000
008000
ENDCHAR
STARTCHAR ygrave
ENCODING 7923
SWIDTH 911 0
DWIDTH 11 0
BBX 9 11 1 0
BITMAP
090000
018000
000000
800180
800180
800280
641A80
1BE580
000140
001B00
FFE800
ENDCHAR
STARTCHAR endash
ENCODING 8211
SWIDTH 419 0
DWIDTH 5 0
BBX 5 1 0 4
BITMAP
BF80
ENDCHAR
STARTCHAR emdash
ENCODING 8212
SWIDTH 1000 0
DWIDTH 12 0
BBX 12 1 0 4
BITMAP
FFFFFF
ENDCHAR
STARTCHAR quoteleft
ENCODING 8216
SWIDTH 163 0
DWIDTH 2 0
BBX 2 2 0 6
BITMAP
10
50
ENDCHAR
STARTCHAR quoteright
ENCODING 8217
SWIDTH 163 0
DWIDTH 2 0
BBX 2 2 0 6
BITMAP
50
80
ENDCHAR
STARTCHAR quotesinglbase
ENCODING 8218
SWIDTH 163 0
DWIDTH 2 0
BBX 2 2 0 -1
BITMAP
50
80
ENDCHAR
STARTCHAR quotedblleft
ENCODING 8220
SWIDTH 303 0
DWIDTH 4 0
BBX 4 2 0 6
BITMAP
15
58
ENDCHAR
STARTCHAR quotedblright
ENCODING 8221
SWIDTH 303 0
DWIDTH 4 0
BBX 3 2 0 6
BITMAP
58
88
ENDCHAR
STARTCHAR quotedblbase
ENCODING 8222
SWIDTH 303 0
DWIDTH 4 0
BBX 3 2 0 -1
BITMAP
58
88
ENDCHAR
STARTCHAR dagger
ENCODING 8224
SWIDTH 500 0
DWIDTH 6 0
BBX 4 8 1 0
BITMAP
14
14
FF
14
14
14
14
14
ENDCHAR
STARTCHAR daggerdbl
ENCODING 8225
SWIDTH 500 0
DWIDTH 6 0
BBX 4 8 1 0
BITMAP
14
14
FF
14
14
FF
14
14
ENDCHAR
STARTCHAR bullet
ENCODING 8226
SWIDTH 352 0
DWIDTH 4 0
BBX 2 2 1 3
BITMAP
B0
B0
ENDCHAR
STARTCHAR ellipsis
ENCODING 8230
SWIDTH 555 0
DWIDTH 7 0
BBX 6 1 0 0
BITMAP
6730
ENDCHAR
STARTCHAR perthousand
ENCODING 8240
SWIDTH 1401 0
DWIDTH 17 0
BBX 16 8 0 0
BITMAP
2F408000
60820000
60850000
2F540000
0022E0BD
00891982
02091982
0502E0BD
ENDCHAR
STARTCHAR guilsinglleft
ENCODING 8249
SWIDTH 257 0
DWIDTH 3 0
BBX 3 5 0 2
BITMAP
14
20
50
20
14
ENDCHAR
STARTCHAR guilsinglright
ENCODING 8250
SWIDTH 257 0
DWIDTH 3 0
BBX 3 5 0 2
BITMAP
50
20
18
20
50
ENDCHAR
STARTCHAR fraction
ENCODING 8260
SWIDTH 200 0
DWIDTH 2 0
BBX 7 8 -2 0
BITMAP
0014
0060
0080
0200
0900
1400
6000
8000
ENDCHAR
STARTCHAR Euro
ENCODING 8364
SWIDTH 833 0
DWIDTH 10 0
BBX 9 8 0 0
BITMAP
01BE40
0A4180
080000
BFFC00
140000
BFF400
090180
02FE40
ENDCHAR
STARTCHAR trademark
ENCODING 8482
SWIDTH 773 0
DWIDTH 9 0
BBX 8 4 0 4
BITMAP
BD82
1186
1155
1155
ENDCHAR
STARTCHAR partialdiff
ENCODING 8706
SWIDTH 790 0
DWIDTH 9 0
BBX 9 8 0 0
BITMAP
07F900
000740
000180
0BF980
240680
600140
241A00
1BE400
ENDCHAR
STARTCHAR minus
ENCODING 8722
SWIDTH 634 0
DWIDTH 8 0
BBX 6 1 1 4
BITMAP
FFE0
ENDCHAR
STARTCHAR uni2215
ENCODING 8725
SWIDTH 200 0
DWIDTH 2 0
BBX 7 8 -2 0
BITMAP
0014
0060
0080
0200
0900
1400
6000
8000
ENDCHAR
STARTCHAR approxequal
ENCODING 8776
SWIDTH 634 0
DWIDTH 8 0
BBX 6 4 1 3
BITMAP
B910
46D0
B910
46D0
ENDCHAR
STARTCHAR notequal
ENCODING 8800
SWIDTH 634 0
DWIDTH 8 0
BBX 6 7 1 1
BITMAP
0200
0200
FFE0
0800
FFE0
1400
2400
ENDCHAR
STARTCHAR lessequal
ENCODING 8804
SWIDTH 634 0
DWIDTH 8 0
BBX 6 6 1 1
BITMAP
01A0
6E40
E000
6E40
01A0
FFE0
ENDCHAR
STARTCHAR greaterequal
ENCODING 8805
SWIDTH 634 0
DWIDTH 8 0
BBX 6 6 1 1
BITMAP
9000
1A40
01A0
1A40
9000
FFE0
ENDCHAR
STARTCHAR fi
ENCODING 64257
SWIDTH 1104 0
DWIDTH 13 0
BBX 11 8 1 0
BITMAP
1BFF08
640008
900008
800008
BFFF08
800008
800008
800008
ENDCHAR
STARTCHAR fl
ENCODING 64258
SWIDTH 1527 0
DWIDTH 18 0
BBX 18 8 1 0
BITMAP
1BFF080000
6400080000
9000080000
8000080000
BFFF080000
8000080000
8000090000
800002FFD0
ENDCHAR
STARTCHAR .notdef
ENCODING -1
SWIDTH 1000 0
DWIDTH 12 0
BBX 1 1 0 0
BITMAP
00
ENDCHAR
ENDFONT
